<svg xmlns="http://www.w3.org/2000/svg" viewBox="0 0 368 466">
  <path d="M338,401.1 C330.4,358.7 327.6,322.8 330,297.4 C331.6,280.5 347.7,239.9 349.2,236.3 C375,186.7 373.6,128.1 345.4,79.6 C317.6,31.8 268.3,2.1 213.5,0.2 C212,0.1 210.5,0.1 209,0.1 C164,-0.4 121.1,16.2 88.3,47 C55.4,77.7 36,119.4 33.5,164.3 C33.3,167.2 33.2,192.2 33.2,198.4 L1.4,281.7 C0.8,283.2 0.5,284.9 0.5,286.5 C0.5,290.1 1.9,293.5 4.4,296 C6.9,298.5 10.3,299.9 13.9,299.9 L57.4,299.9 L57.4,349 C57.4,349.4 57.4,349.8 57.4,350.2 C58.1,374.1 78.1,392.9 102,392.2 C105,392.1 142.2,391.9 165,391.9 L182.5,461.5 C183.2,464.2 185.6,466 188.3,466 L344.6,466 C346.5,466 348.2,465.1 349.4,463.7 C350.5,462.2 350.9,460.3 350.4,458.5 C350.3,458.2 343.7,433.3 338,401.1 Z M193,454 L175.5,384.4 C174.8,381.7 172.4,379.9 169.7,379.9 C169.7,379.9 169.7,379.9 169.7,379.9 C167.1,379.9 105.8,380.1 101.7,380.3 C84.4,380.8 70,367.2 69.5,349.9 C69.5,349.6 69.5,349.3 69.5,349 L69.5,293.9 C69.5,290.6 66.8,287.9 63.5,287.9 L13.9,287.9 C13.4,287.9 13.1,287.7 12.9,287.5 C12.7,287.3 12.5,287 12.5,286.5 C12.5,286.3 12.5,286.1 12.6,286 L44.8,201.7 C45.1,201 45.2,200.3 45.2,199.6 C45.2,187.4 45.3,167.2 45.5,165.1 C47.8,123.3 65.9,84.5 96.5,55.9 C127,27 166.9,11.5 208.8,12 C210.2,12 211.6,12 213,12.1 C239.2,13 263.5,20.4 285.2,34 C305.5,46.7 322.7,64.5 335,85.6 C361.2,130.6 362.5,185 338.4,231 C338.3,231.2 338.2,231.3 338.2,231.5 C337.5,233.3 319.9,276.9 318.1,296.3 C313,350.7 330.9,429.4 337,454 L193,454 Z"/>
  <path d="M293.5,123.5 C308.1,123.5 320,111.9 320,97.6 C320,83.3 308.1,71.7 293.5,71.7 C281,71.7 270.5,80.2 267.8,91.6 L230.6,91.6 L230.6,76.6 C230.6,73.3 227.9,70.6 224.6,70.6 L182.7,70.6 C179.4,70.6 176.7,73.3 176.7,76.6 L176.7,91.5 L139,91.5 C136.3,79.8 126,71 113.8,71 C99.5,71 87.9,82.9 87.9,97.5 C87.9,112.1 99.5,124 113.8,124 C126.1,124 136.3,115.3 139,103.5 L158.6,103.5 C142.4,116.1 132,135.1 130.5,156.2 L116.8,156.2 C113.5,156.2 110.8,158.9 110.8,162.2 L110.8,204.1 C110.8,207.4 113.5,210.1 116.8,210.1 L158.7,210.1 C162,210.1 164.7,207.4 164.7,204.1 L164.7,162.2 C164.7,158.9 162,156.2 158.7,156.2 L142.5,156.2 C144.3,134.7 157.3,115.7 176.6,106.3 L176.6,118.5 C176.6,121.8 179.3,124.5 182.6,124.5 L224.5,124.5 C227.8,124.5 230.5,121.8 230.5,118.5 L230.5,106.3 C249.8,115.7 262.8,134.6 264.6,156.2 L248.4,156.2 C245.1,156.2 242.4,158.9 242.4,162.2 L242.4,204.1 C242.4,207.4 245.1,210.1 248.4,210.1 L290.3,210.1 C293.6,210.1 296.3,207.4 296.3,204.1 L296.3,162.2 C296.3,158.9 293.6,156.2 290.3,156.2 L276.6,156.2 C275.1,135.1 264.8,116.1 248.6,103.5 L267.6,103.5 C270.5,115 281,123.5 293.5,123.5 Z M293.5,83.7 C301.5,83.7 308,89.9 308,97.6 C308,105.3 301.5,111.5 293.5,111.5 C285.5,111.5 279,105.3 279,97.6 C279,89.9 285.5,83.7 293.5,83.7 Z M113.8,112 C106.1,112 99.9,105.5 99.9,97.5 C99.9,89.5 106.1,83 113.8,83 C121.5,83 127.7,89.5 127.7,97.5 C127.7,105.5 121.5,112 113.8,112 Z M152.8,198.2 L122.9,198.2 L122.9,168.3 L152.8,168.3 L152.8,198.2 Z M284.4,198.2 L254.5,198.2 L254.5,168.3 L284.4,168.3 L284.4,198.2 Z M218.6,112.5 L188.7,112.5 L188.7,82.6 L218.6,82.6 L218.6,112.5 Z"/>
</svg>
