<svg xmlns="http://www.w3.org/2000/svg" viewBox="0 0 566.9 567"><path d="M408.7 211.2c-18.6-14-38.9-27.4-60.5-39.9-21.7-12.5-43.4-23.3-64.8-32.5-35.5-15.2-70-25.6-101.6-31.3-68.6-12.2-123.3-1.4-143.9 34.2C86.9 57 178.5 0 283.4 0c41.2 0 77.9 42 101.6 107.5 10.9 30.2 19.1 65.3 23.7 103.7Z" style="fill:#439a86"/><path d="M486.6 283.5c-20.7 24.5-47 49.2-77.9 72.4 2.8-23.1 4.3-47.3 4.3-72.4s-1.5-49.3-4.3-72.4c-4.6-38.3-12.8-73.5-23.7-103.6C361.3 42 324.6 0 283.4 0c104.9 0 196.5 57 245.5 141.7 20.6 35.7 2.5 88.5-42.3 141.8Z" style="fill:#deb841"/><path d="M566.9 283.5c0 51.6-13.8 100-37.9 141.8-20.6 35.7-75.3 46.4-143.9 34.2-31.6-5.6-66.1-16.1-101.6-31.3 21.4-9.1 43.1-20 64.8-32.5 21.7-12.5 41.9-25.9 60.5-39.9 30.9-23.2 57.2-47.8 77.9-72.4 44.8-53.3 62.9-106.1 42.3-141.7 24.1 41.8 37.9 90.2 37.9 141.8Z" style="fill:#ff9770"/><path d="M528.9 425.3C479.9 510 388.3 567 283.4 567c-41.2 0-77.9-42-101.6-107.5-10.9-30.2-19.1-65.3-23.7-103.6 18.6 14 38.9 27.4 60.5 39.9 21.7 12.5 43.4 23.4 64.8 32.5 35.5 15.2 70 25.7 101.6 31.3 68.6 12.1 123.3 1.3 143.9-34.3Z" style="fill:#dc0073"/><path d="M283.4 567c-104.9 0-196.5-57-245.5-141.7-20.6-35.7-2.5-88.4 42.3-141.7 20.7-24.5 47-49.2 77.9-72.4-2.8 23.1-4.3 47.3-4.3 72.4s1.5 49.3 4.3 72.4c4.6 38.3 12.8 73.5 23.7 103.6C205.6 525 242.2 567 283.4 567Z" style="fill:#3a4454"/><path d="M37.9 425.3c-10.09-17.43-10.87-39-3.81-62.72-2.78 8.29-6.31 19.63-10.43 34.56 4.23 9.68 8.99 19.08 14.24 28.16Z" style="fill:#3a4454"/><path d="M283.4 138.8c-21.4 9.1-43.1 20-64.8 32.5-21.7 12.5-41.9 25.9-60.5 39.9-30.9 23.2-57.2 47.8-77.9 72.4-44.8 53.3-62.9 106.1-42.3 141.7C13.8 383.6 0 335.2 0 283.5s13.8-100 37.9-141.8c20.6-35.7 75.3-46.4 143.9-34.2 31.6 5.7 66.1 16.1 101.6 31.3Z" style="fill:#4493e8"/><path d="M181.8 107.5c-53.86-9.58-99.15-5.03-126.1 14.64a284 284 0 0 0-26.8 38.56c20.6-35.6 75.3-46.4 143.9-34.2 26.47 4.77 54.97 12.86 84.39 24.28 8.77-4.28 17.52-8.29 26.21-11.98-35.5-15.2-70-25.6-101.6-31.3Z" style="fill:#1767bb"/><path d="M385 107.5C361.3 42 324.6 0 283.4 0c-3.51 0-7.01.07-10.49.2 33.17 10.95 62.2 49.35 82.09 104.3 9 24.85 16.15 53.17 20.96 83.84 11.39 7.4 22.34 15.03 32.74 22.86-4.6-38.4-12.8-73.5-23.7-103.7Z" style="fill:#367a6a"/><path d="M486.6 283.5c44.8-53.3 62.9-106.1 42.3-141.8-1.2-2.07-2.43-4.13-3.68-6.17 11.24 34.92-7.44 82.19-47.52 129.87-18.08 21.48-40.42 42.96-66.37 63.51-.68 9.15-1.56 18.15-2.63 26.99 30.9-23.2 57.2-47.9 77.9-72.4Z" style="fill:#c29a22"/><path d="M536.6 411.19c-24.15 28.44-75.1 36.43-137.6 25.41-25.97-4.6-53.89-12.52-82.72-23.63-10.98 5.52-21.92 10.61-32.78 15.23 35.5 15.2 70 25.7 101.6 31.3 57.16 10.16 104.64 4.42 130.82-18.43.12-.15.24-.31.37-.46 4.97-4.41 9.18-9.44 12.49-15.12 2.18-3.75 4.06-7.08 4.06-7.08 1.29-2.39 2.54-4.79 3.77-7.22Z" style="fill:#dc3b00"/><path d="M528.9 425.3c-.04.07-.08.13-.12.2-.16.28-.32.55-.48.83.2-.34.41-.68.61-1.03Z" style="fill:#ff4502"/><path d="M206.8 461.6c-9.24-25.53-16.54-54.73-21.35-86.38-9.46-6.29-18.6-12.74-27.35-19.32 4.6 38.3 12.8 73.4 23.7 103.6C205.5 525 242.2 567 283.4 567c3.01 0 6.01-.05 9-.15-34.61-9.32-64.93-48.46-85.6-105.25Z" style="fill:#6e0039"/><path d="M36.31 422.33c-1.19-2.73-2.33-5.49-3.43-8.26.94 2.84 2.08 5.6 3.43 8.26Z" style="fill:#3a4454"/><path d="M93.2 309.6c16.94-20.13 37.63-40.26 61.53-59.62.72-13.23 1.85-26.17 3.37-38.78-30.9 23.2-57.2 47.9-77.9 72.4-40.31 47.96-58.99 95.43-47.32 130.47 1.1 2.78 2.25 5.53 3.43 8.26.51 1 1.03 1.99 1.59 2.97 2.22 3.85 4.54 7.63 6.94 11.36-9.4-34.63 9.35-80.65 48.36-127.06Z" style="fill:#29303b"/></svg>