<svg xmlns="http://www.w3.org/2000/svg" viewBox="0 0 2134 1876">
  <path d="M409,1074 C388,1049 280,924 243,916 C220,911 203,890 203,867 L203,51 C203,19 233,-9 273,4 C458,64 749,233 759,237 L1160,233 C1243,237 1326,245 1401,264 C1459,241 1545,249 1639,258 C1807,274 1872,283 1976,218 C2070,160 2253,46 2272,47 C2339,53 2331,154 2265,148 L1996,325 C1892,390 1730,368 1595,355 C1725,468 1666,578 1702,702 C1732,807 1797,847 1731,913 C1646,999 1409,992 1325,718 C1310,669 1296,626 1217,621 L461,1161 C371,1232 484,1317 583,1247 L1056,919 C1111,881 1169,964 1114,1002 L617,1345 C597,1363 662,1493 760,1428 L1178,1113 C1231,1073 1293,1154 1239,1194 L829,1504 C776,1554 900,1628 977,1570 L1266,1344 C1307,1313 1363,1355 1345,1402 C1375,1382 1411,1373 1449,1376 C1467,1304 1532,1244 1611,1241 C1616,1117 1757,1003 1898,1099 C2040,1012 2041,905 2269,822 C2332,799 2366,895 2303,917 C2113,986 2110,1077 1976,1169 C2216,1439 2038,1567 1862,1539 C1858,1573 1845,1603 1824,1627 L1824,1627 C1790,1667 1738,1686 1686,1678 C1660,1752 1574,1796 1497,1783 C1467,1872 1357,1912 1268,1833 C1254,1820 1241,1807 1229,1795 C1102,1860 956,1803 943,1691 C845,1704 728,1647 715,1547 C613,1553 526,1468 515,1375 C343,1381 248,1189 409,1074 Z M382,895 C422,934 463,982 490,1016 L1172,529 C1180,523 1191,519 1202,519 C1428,519 1396,670 1449,760 C1506,855 1599,879 1652,847 C1609,761 1582,681 1586,581 C1601,213 791,381 711,327 L305,119 L305,834 C330,849 356,870 382,895 Z M1846,1433 C1888,1439 1938,1454 1982,1419 C2031,1378 1886,1206 1827,1174 C1804,1162 1781,1159 1760,1172 L1760,1172 C1707,1207 1706,1261 1715,1273 C1715,1273 1804,1329 1846,1433 Z M1668,1561 C1685,1572 1700,1585 1726,1576 C1844,1534 1638,1242 1556,1380 C1550,1391 1546,1401 1545,1408 C1575,1428 1639,1517 1668,1561 Z M1473,1649 C1481,1656 1508,1709 1567,1671 C1616,1640 1577,1609 1537,1552 C1506,1507 1484,1476 1437,1477 C1401,1477 1377,1501 1369,1535 L1473,1649 Z M1272,1505 C1277,1484 1286,1465 1298,1448 L1075,1622 C997,1702 1091,1740 1165,1713 C1108,1610 1165,1529 1270,1512 L1272,1505 Z M1302,1609 C1296,1609 1237,1614 1245,1644 C1255,1680 1374,1832 1401,1751 C1412,1719 1366,1682 1333,1646 C1315,1625 1305,1612 1302,1609 Z" transform="translate(-203)"/>
</svg>
