<svg xmlns="http://www.w3.org/2000/svg" viewBox="0 0 86 80">
  <path d="M19.8125,0.36658 C19.3344156,0.457796801 18.9914204,0.879923579 19,1.36653 L19,18.86554 L0.40625,32.55227 C0.148550177,32.7424208 -0.00248935737,33.0444813 -3.0297336e-05,33.36472 L-3.0297336e-05,77.3622 C-3.0297336e-05,77.9144527 0.447716062,78.3622 1,78.3622 L85,78.3622 C85.5522839,78.3622 86.0000303,77.9144527 86.0000303,77.3622 L86.0000303,33.36472 C86.0024894,33.0444813 85.8514498,32.7424208 85.59375,32.55227 L67,18.86554 L67,1.36653 C66.9999484,0.814296787 66.5522644,0.366635215 66,0.36658 L20,0.36658 C19.9376379,0.360708615 19.8748621,0.360708615 19.8125,0.36658 L19.8125,0.36658 Z M21,2.36647 L65,2.36647 L65,19.36551 L65,27.36506 C64.9973937,27.4066826 64.9973937,27.4484274 65,27.49005 L65,42.3642 C65,42.3745327 65,42.3848673 65,42.3952 L63.03125,43.4576 L43,54.2073 L22.96875,43.4579 L21,42.3955 C21,42.3851673 21,42.3748327 21,42.3645 L21,27.55285 C21.0058718,27.4904912 21.0058718,27.4277188 21,27.36536 L21,19.36581 C21.0058718,19.3034512 21.0058718,19.2406788 21,19.17832 L21,2.36647 L21,2.36647 Z M42.875,8.33488 C42.359881,8.39942194 41.9797978,8.8473554 42,9.36608 L42,11.36596 C39.054747,11.36596 37,13.6872 37,16.36568 C37,19.17786 39.588111,21.3654 43,21.3654 C45.623635,21.36531 47,22.74566 47,24.36523 C47,26.1185 45.979187,27.36506 44,27.36506 L38,27.36506 C37.6393888,27.3599986 37.3039831,27.5494723 37.1222005,27.8609369 C36.9404179,28.1724014 36.9404179,28.5576086 37.1222005,28.8690731 C37.3039831,29.1805377 37.6393888,29.3700114 38,29.36495 L42,29.36495 L42,31.36483 C41.9948997,31.7254455 42.1843753,32.060872 42.4958728,32.2426681 C42.8073704,32.4244642 43.1926296,32.4244642 43.5041272,32.2426681 C43.8156247,32.060872 44.0051003,31.7254455 44,31.36483 L44,29.36495 C46.945253,29.36495 49,27.04371 49,24.36523 C49,21.55305 46.411925,19.3654 43,19.36551 C40.376329,19.36551 39,17.98525 39,16.36568 C39,14.61241 40.020813,13.36585 42,13.36585 L48,13.36585 C48.3606112,13.3709114 48.6960169,13.1814377 48.8777995,12.8699731 C49.0595821,12.5585086 49.0595821,12.1733014 48.8777995,11.8618369 C48.6960169,11.5503723 48.3606112,11.3608986 48,11.36596 L44,11.36596 L44,9.36608 C44.0114885,9.07235224 43.8931588,8.78844579 43.6764592,8.58981409 C43.4597595,8.3911824 43.1666391,8.29794446 42.875,8.33488 L42.875,8.33488 Z M19,21.33415 L19,27.36506 C18.9973937,27.4066826 18.9973937,27.4484274 19,27.49005 L19,41.333 L3.28125,32.896 L19,21.33415 Z M67,21.33415 L82.71875,32.896 L67,41.333 L67,27.55255 C67.0058718,27.4901912 67.0058718,27.4274188 67,27.36506 L67,21.33415 Z M2,34.48966 L22.03125,45.2391 L31.5,50.3325 L2.34375,75.5811 C2.15684024,75.7405951 2.0346026,75.9628454 2,76.2061 L2,34.48966 L2,34.48966 Z M84,34.48966 L84,76.2373 C83.9728305,75.982877 83.8499463,75.7482978 83.65625,75.5811 L54.5,50.3325 L63.96875,45.2391 L84,34.48966 Z M34.8125,38.3644 C34.455232,38.3978917 34.1429715,38.6194287 33.9933438,38.9455603 C33.8437162,39.2716918 33.8794535,39.6528706 34.0870938,39.9455104 C34.2947342,40.2381501 34.6427321,40.3977918 35,40.3643 L51,40.3643 C51.3605269,40.3692301 51.6957975,40.1797263 51.8774992,39.8683142 C52.059201,39.5569022 52.059201,39.1717978 51.8774992,38.8603858 C51.6957975,38.5489737 51.3605269,38.3594699 51,38.3644 L35,38.3644 C34.9376379,38.3585286 34.8748621,38.3585286 34.8125,38.3644 L34.8125,38.3644 Z M38.8125,45.364 C38.455232,45.3974917 38.1429715,45.6190287 37.9933438,45.9451603 C37.8437162,46.2712918 37.8794535,46.6524706 38.0870938,46.9451104 C38.2947342,47.2377501 38.6427321,47.3973918 39,47.3639 L47,47.3639 C47.3605269,47.3688301 47.6957975,47.1793263 47.8774992,46.8679142 C48.059201,46.5565022 48.059201,46.1713978 47.8774992,45.8599858 C47.6957975,45.5485737 47.3605269,45.3590699 47,45.364 L39,45.364 C38.9376379,45.3581286 38.8748621,45.3581286 38.8125,45.364 L38.8125,45.364 Z M33.40625,51.3325 L42.53125,56.2384 C42.8243955,56.3939324 43.1756045,56.3939324 43.46875,56.2384 L52.59375,51.3325 L81.46875,76.3623 L4.53125,76.3623 L33.40625,51.3325 L33.40625,51.3325 Z" transform="translate(0 .638)"/>
</svg>
